<svg id="Layer_1" data-name="Layer 1" xmlns="http://www.w3.org/2000/svg" viewBox="0 0 576 216"><defs><style>.cls-1{font-size:24.35px;}.cls-1,.cls-4,.cls-7{fill:#0a3c5d;}.cls-1,.cls-7{font-family:Calibri-Light, Calibri;}.cls-2{letter-spacing:-0.01em;}.cls-3{letter-spacing:-0.08em;}.cls-5{fill:#f7ce3e;}.cls-6{letter-spacing:0em;}.cls-7{font-size:23.37px;}.cls-8{letter-spacing:-0.08em;}.cls-9{letter-spacing:0em;}.cls-10{letter-spacing:-0.03em;}.cls-11{letter-spacing:-0.01em;}.cls-12{letter-spacing:0em;}</style></defs><title>flex_feedback_explainer</title><text class="cls-1" transform="translate(10.95 24.11) scale(1.06 1)">CR<tspan class="cls-2" x="25.99" y="0">E</tspan><tspan class="cls-3" x="37.65" y="0">A</tspan><tspan x="49.46" y="0">TE A</tspan><tspan x="-4.96" y="29.22">TEMPL</tspan><tspan class="cls-3" x="61.83" y="29.22">A</tspan><tspan x="73.65" y="29.22">TE</tspan></text><path class="cls-4" d="M334.84,135.65H200.07V.71H334.84ZM331.17,132V4.37H203.76V132Z" transform="translate(-0.37 -0.25)"/><path class="cls-4" d="M223.16,68.08c0-6.21,5.36-11.22,12.07-11.3a11.74,11.74,0,0,1,11.94,11.42c0,6.08-5.59,11.4-11.89,11.33C228.47,79.44,223.14,74.41,223.16,68.08Zm12-7.68c-4.55,0-8.33,3.58-8.29,7.83s3.76,7.62,8.28,7.68a8.08,8.08,0,0,0,8.28-7.82C243.42,64,239.58,60.39,235.18,60.39Z" transform="translate(-0.37 -0.25)"/><path class="cls-4" d="M247.17,103.93c0,6.14-5.53,11.39-11.89,11.34-6.8-.06-12.14-5.1-12.13-11.46s5.45-11.24,12.17-11.18S247.19,97.71,247.17,103.93Zm-11.92-7.74c-4.54,0-8.31,3.38-8.37,7.54-.06,4.4,3.49,7.81,8.17,7.87s8.42-3.42,8.39-7.68A8.11,8.11,0,0,0,235.25,96.19Z" transform="translate(-0.37 -0.25)"/><path class="cls-5" d="M235.25,43.67c-6.87,0-12.14-5-12.09-11.44C223.21,26,228.71,21,235.39,21c6.44,0,11.81,5.23,11.78,11.4S241.78,43.71,235.25,43.67Zm-.13-3.55c4.49,0,8.25-3.41,8.33-7.57s-3.69-7.82-8.24-7.84-8.34,3.46-8.32,7.74S230.67,40.1,235.12,40.11Z" transform="translate(-0.37 -0.25)"/><path class="cls-5" d="M311.68,30.76v3.32H266.19V30.76Z" transform="translate(-0.37 -0.25)"/><path class="cls-4" d="M266.15,69.78V66.52h45.46v3.26Z" transform="translate(-0.37 -0.25)"/><path class="cls-4" d="M266.15,105.52v-3.28h45.46v3.28Z" transform="translate(-0.37 -0.25)"/><text class="cls-1" transform="translate(217.7 175.02) scale(1.06 1)">SET UP A <tspan x="-5.27" y="29.22">CLASS LI</tspan><tspan class="cls-6" x="75.36" y="29.22">S</tspan><tspan x="86.26" y="29.22">T</tspan></text><path class="cls-4" d="M488.92,99.88c17.27,0,34.54.35,51.79-.12,12-.33,22.8,8.28,22.88,20.5.12,17.85.21,35.7,0,53.55-.16,11.14-9.88,19.55-21.91,19.55q-50.86,0-101.73,0a6.77,6.77,0,0,0-5.1,2c-5,4.8-10.17,9.51-15.26,14.27-1.07,1-2.32,2.23-3.75,1.28a4.36,4.36,0,0,1-1.43-3.28q-.12-44.16-.07-88.32c0-10.48,9.57-19.36,20.95-19.38Q462.09,99.84,488.92,99.88ZM419.37,203.49c4.76-4.46,9.08-8.38,13.23-12.46a7.51,7.51,0,0,1,5.75-2.2q48.07.08,96.13,0c2.8,0,5.6.06,8.4,0,8.16-.26,15.44-6.45,15.55-14,.29-18.35.21-36.7.22-55.06,0-10.08-9.47-15.58-16.44-15.57q-53.2,0-106.4,0c-6.68,0-13.13,3.93-15.39,9.7a21.28,21.28,0,0,0-1.26,7.58c-.11,26.56-.09,53.12-.1,79.68A20.68,20.68,0,0,0,419.37,203.49Z" transform="translate(-0.37 -0.25)"/><path class="cls-4" d="M445.6,144.52c1,0,1.77-.12,2.52-.12q40.83,0,81.66,0c2.06,0,2.74.51,2.62,2.42-.09,1.47-.54,2-2.18,2q-41.29-.06-82.59,0c-1.45,0-2.24-.3-2-1.8A21.16,21.16,0,0,0,445.6,144.52Z" transform="translate(-0.37 -0.25)"/><path class="cls-5" d="M489.17,128.86c13.53,0,27.06,0,40.59,0,1.8,0,2.65.28,2.66,2.21s-.88,2.2-2.66,2.2q-40.94-.06-81.87,0c-.72,0-2-.18-2.06-.45a7.28,7.28,0,0,1,0-3.38c.09-.32,1.48-.48,2.28-.48Q468.64,128.84,489.17,128.86Z" transform="translate(-0.37 -0.25)"/><path class="cls-4" d="M481.92,159.88H515c2.57,0,3.71,1.55,2.71,3.72a1.73,1.73,0,0,1-1,.72,5,5,0,0,1-1.39.06q-33.59,0-67.18,0c-2.05,0-2.66-.56-2.66-2.45s1-2.1,2.58-2.1C459.37,159.89,470.65,159.88,481.92,159.88Z" transform="translate(-0.37 -0.25)"/><path class="cls-4" d="M120.6,80.73V216.25H.37V80.73ZM3.35,213.38H117.52V92H3.35Zm3-129.89a2.79,2.79,0,1,0,0,5.57,2.79,2.79,0,1,0,0-5.57Zm17.9,5.57a3,3,0,0,0,3.14-2.71,3,3,0,1,0-3.14,2.71Zm-9,0a2.79,2.79,0,1,0,0-5.57,2.79,2.79,0,1,0,0,5.57Z" transform="translate(-0.37 -0.25)"/><path class="cls-4" d="M93.48,120.32v76.16h-66V120.32Zm-3,73.33V123.09H30.42v70.57Z" transform="translate(-0.37 -0.25)"/><path class="cls-5" d="M36.44,106v-5.53h48V106Z" transform="translate(-0.37 -0.25)"/><path class="cls-5" d="M63.57,187.94v-8.29H84.43v8.29Z" transform="translate(-0.37 -0.25)"/><path class="cls-4" d="M84.49,131.62v2.57h-48v-2.57Z" transform="translate(-0.37 -0.25)"/><path class="cls-4" d="M75.5,148.57v2.67h-39v-2.67Z" transform="translate(-0.37 -0.25)"/><path class="cls-4" d="M75.5,157v2.66h-39V157Z" transform="translate(-0.37 -0.25)"/><path class="cls-4" d="M84.46,140.14v2.6H54.56v-2.6Z" transform="translate(-0.37 -0.25)"/><path class="cls-4" d="M40.84,162.66a4.3,4.3,0,0,1,4.52,4.19,4.35,4.35,0,0,1-4.5,4.24,4.4,4.4,0,0,1-4.48-4.15A4.35,4.35,0,0,1,40.84,162.66Zm-.28,5.79h.69c.38-.54,1.08-1.11,1-1.63a2,2,0,0,0-1.35-1.3,1.15,1.15,0,0,0-1.45,1.31C39.58,167.41,40.18,167.91,40.56,168.45Z" transform="translate(-0.37 -0.25)"/><path class="cls-4" d="M63.51,166.8a4.5,4.5,0,0,1,9,0A4.4,4.4,0,0,1,68,171.09,4.35,4.35,0,0,1,63.51,166.8Zm6.18.3,0-.64c-.59-.33-1.22-1-1.77-.91a2,2,0,0,0-1.33,1.31A1.14,1.14,0,0,0,68,168.18C68.62,168.07,69.13,167.48,69.69,167.11Z" transform="translate(-0.37 -0.25)"/><path class="cls-4" d="M51.39,140.11v2.62H36.48v-2.62Z" transform="translate(-0.37 -0.25)"/><path class="cls-4" d="M57.34,165.56v2.59H48.5v-2.59Z" transform="translate(-0.37 -0.25)"/><path class="cls-4" d="M84.47,165.56v2.6H75.62v-2.6Z" transform="translate(-0.37 -0.25)"/><path class="cls-4" d="M78.7,157h5.57l-2.73,2.52Z" transform="translate(-0.37 -0.25)"/><path class="cls-4" d="M84.33,148.56l-2.83,2.6-2.66-2.6Z" transform="translate(-0.37 -0.25)"/><text class="cls-7" transform="translate(411.09 19.07) scale(1.06 1)">USE TEMPL<tspan class="cls-8" x="106.27" y="0">A</tspan><tspan class="cls-9" x="117.61" y="0">TE </tspan><tspan class="cls-10" x="57.21" y="28.05">T</tspan><tspan x="67.83" y="28.05">O </tspan><tspan x="-9.27" y="56.09">WRITE FEED</tspan><tspan class="cls-11" x="105.25" y="56.09">B</tspan><tspan class="cls-12" x="117.53" y="56.09">A</tspan><tspan x="130.59" y="56.09">CK</tspan></text></svg>